<?xml version="1.0" encoding="utf-8"?>
<!-- Generator: Adobe Illustrator 25.2.0, SVG Export Plug-In . SVG Version: 6.00 Build 0)  -->
<svg version="1.1" id="Layer_1" xmlns="http://www.w3.org/2000/svg" xmlns:xlink="http://www.w3.org/1999/xlink" x="0px" y="0px"
	 viewBox="0 0 1920 451.04" style="enable-background:new 0 0 1920 451.04;" xml:space="preserve">
<path d="M8.37,41.8H114.2c65.84,0,120.36,23.83,120.36,98.15c0,71.49-54.93,102.99-118.75,102.99H80.67v99.76H8.37V41.8z
	 M112.18,185.99c35.14,0,52.1-16.56,52.1-46.04c0-30.29-19.39-40.79-54.12-40.79H80.67v86.84H112.18z"/>
<path d="M261.62,41.8h73.51l74.72,144.19l29.48,66.64h2.02c-3.64-31.91-9.69-75.13-9.69-111.07V41.8h68.66V342.7h-73.51l-74.32-145
	l-29.48-65.84h-2.02c3.23,33.52,9.29,74.72,9.29,111.07v99.76h-68.66V41.8z"/>
<path d="M532.22,194.07c0-100.17,67.05-157.52,143.38-157.52c39.18,0,70.68,18.18,91.28,39.18l-37.56,46.04
	c-15.35-13.73-31.1-23.43-52.51-23.43c-38.77,0-70.68,34.74-70.68,93.3c0,59.78,27.47,94.51,69.87,94.51
	c24.23,0,43.22-12.12,57.35-27.47l37.97,45.24c-25.45,29.48-58.97,44.43-98.15,44.43C596.85,348.36,532.22,295.85,532.22,194.07z"/>
<path d="M772.54,227.59c0-75.93,54.12-120.36,112.69-120.36c58.16,0,112.28,44.43,112.28,120.36c0,76.34-54.12,120.77-112.28,120.77
	C826.66,348.36,772.54,303.93,772.54,227.59z M924,227.59c0-37.97-12.12-62.2-38.77-62.2c-27.06,0-39.18,24.23-39.18,62.2
	c0,38.37,12.12,62.6,39.18,62.6C911.89,290.2,924,265.96,924,227.59z"/>
<path d="M1006.8,227.59c0-75.13,47.26-120.36,94.92-120.36c25.45,0,40.39,9.29,55.33,23.83l-2.42-34.33V19.99h71.89V342.7h-58.57
	l-5.25-22.21h-1.62c-16.16,16.16-38.37,27.87-60.18,27.87C1043.55,348.36,1006.8,302.72,1006.8,227.59z M1154.63,270v-90.47
	c-10.91-10.1-23.83-13.73-35.95-13.73c-19.79,0-37.97,18.58-37.97,60.99c0,44.02,14.54,62.6,39.18,62.6
	C1133.62,289.39,1144.53,284.95,1154.63,270z"/>
<path d="M1256,43.82c0-22.21,15.75-36.75,39.99-36.75c23.83,0,39.99,14.54,39.99,36.75c0,22.62-16.16,37.16-39.99,37.16
	C1271.75,80.98,1256,66.44,1256,43.82z M1260.04,112.88h71.89V342.7h-71.89V112.88z"/>
<path d="M1365.45,112.88h58.57l5.25,28.68h1.21c18.98-18.58,42.41-34.33,73.51-34.33c50.08,0,71.49,35.95,71.49,93.3V342.7h-71.89
	V209.42c0-31.91-8.48-40.79-26.66-40.79c-16.16,0-25.85,7.27-39.58,20.6V342.7h-71.89V112.88z"/>
<path d="M1593.25,381.48c0-18.98,10.91-34.33,32.31-45.24v-2.02c-12.12-8.08-21-20.2-21-39.58c0-16.16,10.5-32.31,25.85-42.81v-1.62
	c-16.56-11.31-31.5-32.72-31.5-59.78c0-55.74,46.45-83.2,96.13-83.2c13.33,0,25.85,2.02,36.35,5.65h84.42v52.1h-35.14
	c3.23,6.46,6.06,16.96,6.06,27.87c0,53.72-40.79,77.15-91.69,77.15c-7.67,0-16.96-1.21-27.06-4.04c-4.85,4.85-7.27,8.08-7.27,16.16
	c0,10.5,9.29,15.35,33.93,15.35h36.35c56.55,0,88.86,17.37,88.86,58.97c0,48.47-50.49,82.8-130.46,82.8
	C1636.47,439.24,1593.25,422.68,1593.25,381.48z M1750.77,368.96c0-13.73-12.12-16.56-33.52-16.56h-21.81
	c-16.56,0-25.45-0.81-32.72-2.83c-7.27,6.46-10.5,12.92-10.5,20.6c0,16.16,19.39,24.23,48.47,24.23
	C1730.17,394.4,1750.77,383.5,1750.77,368.96z M1724.52,190.43c0-23.02-12.52-35.14-29.49-35.14c-16.56,0-29.08,12.12-29.08,35.14
	c0,24.23,12.52,36.35,29.08,36.35C1712,226.78,1724.52,214.67,1724.52,190.43z"/>
<path d="M1830.74,303.52c0-25.04,17.77-44.43,42.81-44.43c24.64,0,42.81,19.39,42.81,44.43c0,25.04-18.17,44.83-42.81,44.83
	C1848.51,348.36,1830.74,328.57,1830.74,303.52z"/>
</svg>
